<svg id="Calque_1" data-name="Calque 1" xmlns="http://www.w3.org/2000/svg" viewBox="0 0 1808 623">
  <defs>
    <style>
      .cls-1 {
       fill: transparent;
      }

           #gradient1 {
  --color-stop-1: #dfe6ed;
  --color-stop-2: #96c3ec;
  --color-stop-3: #8dd7cf;
  --color-stop-4: #f3c19d;
}


           #gradient2 {
  --color-stop-1: #dfe6ed;
  --color-stop-2: #96c3ec;
  --color-stop-3: #8dd7cf;
  --color-stop-4: #f3c19d;
}

 
    </style>
  </defs>
  <title>Sylvie_logo</title>

      <linearGradient id="gradient1" x2="0" y2="1">
    <stop offset="8%" stop-color="var(--color-stop-1)" />
    <stop offset="35%" stop-color="var(--color-stop-2)" />
    <stop offset="62%" stop-color="var(--color-stop-3)" />
    <stop offset="90%" stop-color="var(--color-stop-4)" />
  </linearGradient>

        <linearGradient id="gradient2" x2="0" y2="1">
    <stop offset="0%" stop-color="var(--color-stop-1)" />
    <stop offset="34%" stop-color="var(--color-stop-2)" />
    <stop offset="54%" stop-color="var(--color-stop-3)" />
    <stop offset="80%" stop-color="var(--color-stop-4)" />
  </linearGradient>
  <g>
    <path class="cls-1" d="M57,545V229H658c2,13.94,4,27.87,5.87,41.84,1.44,11,2.44,22.1,3.85,33.13,1.6,12.51,3.54,25,5.11,37.47,1.33,10.54,2.24,21.13,3.52,31.67,1.83,15.15,3.82,30.29,5.76,45.43q.75,5.93,1.56,11.86c1.43,10.35,3.12,20.67,4.22,31.05.69,6.47,1.25,7.52,7.76,7.53q32.24.06,64.48,0c5.8,0,7.94-1.73,8.7-7.31,1.15-8.36,2.12-16.75,3.12-25.13,1.24-10.36,2.35-20.74,3.69-31.09,1.68-12.95,3.64-25.87,5.28-38.83,1.26-10,2.23-20.08,3.31-30.13.39-3.63.57-7.3,1.1-10.91,1.48-10.14,3.23-20.23,4.61-30.38s2.46-20.06,3.52-30.1c1.27-12,2.37-24.07,3.54-36.1H1865V569c-14.66,0-29.33.07-44-.07-3.76,0-6,1-7.6,4.79-12,27.82-24.3,55.52-36.45,83.29q-23.82,54.47-47.56,109c-3.35,7.69-6.8,15.33-10.63,24-1.36-2.51-2.25-3.88-2.9-5.36q-13.14-30.24-26.23-60.5-32.58-75.17-65.09-150.38c-1.49-3.47-3.42-4.8-7.1-4.76-13,.15-26,0-39,.07-6.12,0-6.46.36-6.46,6.58q0,138.21,0,276.42h-38a51.49,51.49,0,0,0-1.61-5.21q-22-51.72-44-103.42-36.21-85-72.38-170.1c-1.3-3.07-3.21-4.34-6.46-4.3-7.49.09-15,.17-22.49,0-4-.11-6.12,1.62-7.52,5.15-2,4.95-4.23,9.78-6.38,14.65q-20.08,45.46-40.19,90.93-19.58,44.33-39.11,88.67Q1275.4,810.15,1257,852h-18c0-7.67,0-15.33,0-23,0-8,0-8-8-8H1094c-6.83,0-7-.14-7-7.05q0-43.5,0-87c0-6.6.24-6.84,6.68-6.85q22.74,0,45.49,0c25.5,0,51-.09,76.49.07,4.75,0,6.63-1.51,6.39-6.33-.29-5.82,0-11.66-.07-17.5,0-7.19-.14-7.33-7.23-7.33h-121c-6.51,0-6.76-.26-6.77-6.76q0-35.75,0-71.49c0-11.73-.93-10.66,10.87-10.67q63.74,0,127.48,0c6.22,0,6.57-.37,6.61-6.46s0-12,0-18c0-6.21-.35-6.56-6.5-6.56q-83,0-166,0c-6.17,0-6.51.34-6.51,6.53q0,138.24,0,276.47H921q0-122.19,0-244.39c0-7.55,0-7.58,7.46-7.58,26.82,0,53.65-.08,80.47.06,4.54,0,6.31-1.52,6.11-6.09-.27-5.82-.06-11.66-.07-17.49,0-7.46-.06-7.52-7.54-7.52H833.52c-11.66,0-23.32.1-35,0-4.09-.06-5.72,1.48-5.59,5.58.19,6,0,12,0,18,0,7.45.06,7.51,7.55,7.51q40,0,80,0c6.14,0,6.4.32,6.46,6.57,0,1.66,0,3.33,0,5L887,852H57V566a44.88,44.88,0,0,1,.93,4.84c1,11.76,1.32,23.62,3,35.27,9.84,67.24,38.22,124.95,88.74,171.17,29.26,26.77,63.14,45.54,100.59,57.9,43.12,14.23,87.47,18.27,132.65,15,30.1-2.2,59.39-8.07,87.68-18.54,45-16.63,84.25-41.72,116.28-77.83a279.15,279.15,0,0,0,55.84-96.68c15.54-45.84,19.08-93,14.51-141-4-42.53-15.64-82.68-36.67-120a266.64,266.64,0,0,0-60.09-73.36c-36.58-31-78.85-49.84-125.4-59.84-29.67-6.37-59.74-8-89.92-6.76a437.87,437.87,0,0,0-48.63,4.62,287.55,287.55,0,0,0-96.37,33.16,263,263,0,0,0-75.82,62.63c-24.56,29.66-41.71,63.32-53,100a300.29,300.29,0,0,0-12.38,65.65C58.34,529.82,57.65,537.41,57,545Z" transform="translate(-57 -229)"/>
    <path id="O" style="fill: url(#gradient1);" d="M57,545c.65-7.59,1.34-15.18,1.93-22.77a300.29,300.29,0,0,1,12.38-65.65c11.32-36.7,28.47-70.36,53-100a263,263,0,0,1,75.82-62.63,287.55,287.55,0,0,1,96.37-33.16,437.87,437.87,0,0,1,48.63-4.62c30.18-1.22,60.25.39,89.92,6.76,46.55,10,88.82,28.81,125.4,59.84a266.64,266.64,0,0,1,60.09,73.36c21,37.31,32.62,77.46,36.67,120,4.57,48,1,95.17-14.51,141a279.15,279.15,0,0,1-55.84,96.68c-32,36.11-71.31,61.2-116.28,77.83C442.32,842.09,413,848,382.93,850.16c-45.18,3.29-89.53-.75-132.65-15-37.45-12.36-71.33-31.13-100.59-57.9C99.17,731.06,70.79,673.35,61,606.11c-1.7-11.65-2-23.51-3-35.27A44.88,44.88,0,0,0,57,566ZM357.38,346.85c-4.31.38-8.61,1-12.92,1.11a165.35,165.35,0,0,0-50.95,9.19c-58.45,20.47-97,61-117.62,118.91-12.22,34.42-14.22,69.91-10.06,106,3.51,30.37,12.55,58.88,27.9,85.35a181.45,181.45,0,0,0,73.1,70.51c40.32,21.43,83.38,26.25,127.6,18.46,61-10.73,105.66-44.79,134-99.63,20.7-40,26.4-83.19,23.23-127.61a205.91,205.91,0,0,0-24.12-82.92C513,418.8,493.06,396,467.13,378.88,433.93,357,397.06,347,357.38,346.85Z" transform="translate(-57 -229)"/>
    <path id="M" style="fill: url(#gradient2);" d="M1572,852q0-138.21,0-276.42c0-6.22.34-6.57,6.46-6.58,13,0,26,.08,39-.07,3.68,0,5.61,1.29,7.1,4.76q32.42,75.25,65.09,150.38,13.11,30.25,26.23,60.5c.65,1.48,1.54,2.85,2.9,5.36,3.83-8.63,7.28-16.27,10.63-24q23.8-54.47,47.56-109c12.15-27.77,24.45-55.47,36.45-83.29,1.63-3.77,3.84-4.82,7.6-4.79,14.66.14,29.33.07,44,.07V852h-34V616.87a4,4,0,0,0-2.43,2.23q-31.41,73.5-62.79,147-18.35,43-36.78,85.88h-21c-8.39-19.42-16.83-38.81-25.16-58.26q-32.07-74.88-64.06-149.78c-3.89-9.08-7.84-18.12-11.76-27.18l-1,.29V852Z" transform="translate(-57 -229)"/>
    <path id="apostrophe" style="fill: #f3c19d;" d="M797,229c-1.17,12-2.27,24.07-3.54,36.1-1.06,10-2.17,20.09-3.52,30.1s-3.13,20.24-4.61,30.38c-.53,3.61-.71,7.28-1.1,10.91-1.08,10.05-2.05,20.11-3.31,30.13-1.64,13-3.6,25.88-5.28,38.83-1.34,10.35-2.45,20.73-3.69,31.09-1,8.38-2,16.77-3.12,25.13-.76,5.58-2.9,7.31-8.7,7.31q-32.25,0-64.48,0c-6.51,0-7.07-1.06-7.76-7.53-1.1-10.38-2.79-20.7-4.22-31.05q-.81-5.92-1.56-11.86c-1.94-15.14-3.93-30.28-5.76-45.43-1.28-10.54-2.19-21.13-3.52-31.67-1.57-12.5-3.51-25-5.11-37.47-1.41-11-2.41-22.11-3.85-33.13-1.82-14-3.9-27.9-5.87-41.84Z" transform="translate(-57 -229)"/>
    <path id="a" style="fill: url(#gradient2);" d="M1257,852q18.4-41.84,36.82-83.67,19.54-44.36,39.11-88.67,20.07-45.48,40.19-90.93c2.15-4.87,4.41-9.7,6.38-14.65,1.4-3.53,3.55-5.26,7.52-5.15,7.49.21,15,.13,22.49,0,3.25,0,5.16,1.23,6.46,4.3q36.12,85.08,72.38,170.1,22,51.71,44,103.42A51.49,51.49,0,0,1,1534,852h-40a36.49,36.49,0,0,0-1.22-4.3c-8.11-19.72-16.41-39.36-24.28-59.18-1.89-4.77-4.3-6.63-9.51-6.58-24.5.25-49,.11-73.49.11h-55c-2.92,0-5.5.07-6.91,3.49-9.12,22.19-18.38,44.31-27.59,66.46Zm195.72-101.49c-18.58-46.11-36.82-91.36-55.06-136.61l-1.4.07c-19.15,45.28-38.31,90.57-57.76,136.54Z" transform="translate(-57 -229)"/>
    <path id="e" style="fill: url(#gradient2);" d="M1053,852q0-138.24,0-276.47c0-6.19.34-6.53,6.51-6.53q83,0,166,0c6.15,0,6.46.35,6.5,6.56q0,9,0,18c0,6.09-.39,6.45-6.61,6.46q-63.74,0-127.48,0C1086.1,600,1087,599,1087,610.7q0,35.74,0,71.49c0,6.5.26,6.75,6.77,6.76h121c7.09,0,7.21.14,7.23,7.33,0,5.84-.22,11.68.07,17.5.24,4.82-1.64,6.36-6.39,6.33-25.49-.16-51-.07-76.49-.07q-22.74,0-45.49,0c-6.44,0-6.67.25-6.68,6.85q0,43.5,0,87c0,6.91.13,7.05,7,7.05h137c8,0,8,0,8,8,0,7.67,0,15.33,0,23Z" transform="translate(-57 -229)"/>
    <path id="t" style="fill: url(#gradient2);" d="M887,852l0-240.4c0-1.66,0-3.33,0-5-.06-6.25-.32-6.57-6.46-6.57q-40,0-80,0c-7.49,0-7.53-.06-7.55-7.51,0-6,.15-12,0-18-.13-4.1,1.5-5.64,5.59-5.58,11.66.15,23.32,0,35,0h173.93c7.48,0,7.53.06,7.54,7.52,0,5.83-.2,11.67.07,17.49.2,4.57-1.57,6.12-6.11,6.09-26.82-.14-53.65-.07-80.47-.06-7.44,0-7.46,0-7.46,7.58Q921,729.8,921,852Z" transform="translate(-57 -229)"/>
    <path class="cls-1" d="M1729,852q18.39-42.94,36.78-85.88,31.41-73.5,62.79-147a4,4,0,0,1,2.43-2.23V852Z" transform="translate(-57 -229)"/>
    <path class="cls-1" d="M1606,852V617.07l1-.29c3.92,9.06,7.87,18.1,11.76,27.18q32,74.89,64.06,149.78c8.33,19.45,16.77,38.84,25.16,58.26Z" transform="translate(-57 -229)"/>
    <path class="cls-1" d="M1296,852c9.21-22.15,18.47-44.27,27.59-66.46,1.41-3.42,4-3.5,6.91-3.49h55c24.49,0,49,.14,73.49-.11,5.21-.05,7.62,1.81,9.51,6.58,7.87,19.82,16.17,39.46,24.28,59.18A36.49,36.49,0,0,1,1494,852Z" transform="translate(-57 -229)"/>
    <path class="cls-1" d="M357.38,346.85c39.68.16,76.55,10.1,109.75,32C493.06,396,513,418.8,527.58,446.2a205.91,205.91,0,0,1,24.12,82.92c3.17,44.42-2.53,87.6-23.23,127.61-28.38,54.84-73.08,88.9-134,99.63-44.22,7.79-87.28,3-127.6-18.46a181.45,181.45,0,0,1-73.1-70.51c-15.35-26.47-24.39-55-27.9-85.35-4.16-36.07-2.16-71.56,10.06-106,20.58-58,59.17-98.44,117.62-118.91A165.35,165.35,0,0,1,344.46,348C348.77,347.85,353.07,347.23,357.38,346.85Z" transform="translate(-57 -229)"/>
    <path class="cls-1" d="M1452.72,750.51H1338.5c19.45-46,38.61-91.26,57.76-136.54l1.4-.07C1415.9,659.15,1434.14,704.4,1452.72,750.51Z" transform="translate(-57 -229)"/>
  </g>
</svg>
