<?xml version="1.0" encoding="UTF-8" standalone="no"?>
<!DOCTYPE svg PUBLIC "-//W3C//DTD SVG 1.1//EN" "http://www.w3.org/Graphics/SVG/1.1/DTD/svg11.dtd">
<svg width="100%" height="100%" viewBox="0 0 128 128" version="1.1" xmlns="http://www.w3.org/2000/svg" xmlns:xlink="http://www.w3.org/1999/xlink" xml:space="preserve" xmlns:serif="http://www.serif.com/" style="fill-rule:evenodd;clip-rule:evenodd;stroke-linejoin:round;stroke-miterlimit:2;">
    <g transform="matrix(1.10667,0,0,1.10667,-2507.53,-450.414)">
        <g>
            <path d="M2323.66,406.998C2355.57,406.998 2381.49,432.911 2381.49,464.829C2381.49,496.746 2355.57,522.66 2323.66,522.66C2291.74,522.66 2265.83,496.746 2265.83,464.829C2265.83,432.911 2291.74,406.998 2323.66,406.998ZM2323.66,429.806C2342.99,429.806 2358.68,445.499 2358.68,464.829C2358.68,484.158 2342.99,499.851 2323.66,499.851C2304.33,499.851 2288.63,484.158 2288.63,464.829C2288.63,445.499 2304.33,429.806 2323.66,429.806Z" style="fill:url(#_Linear1);"/>
        </g>
    </g>
    <defs>
        <linearGradient id="_Linear1" x1="0" y1="0" x2="1" y2="0" gradientUnits="userSpaceOnUse" gradientTransform="matrix(7.08217e-15,115.661,-115.661,7.08217e-15,2323.66,406.999)"><stop offset="0" style="stop-color:rgb(223,230,237);stop-opacity:1"/><stop offset="0.04" style="stop-color:rgb(223,230,237);stop-opacity:1"/><stop offset="0.08" style="stop-color:rgb(223,230,237);stop-opacity:1"/><stop offset="0.35" style="stop-color:rgb(150,195,236);stop-opacity:1"/><stop offset="0.62" style="stop-color:rgb(141,215,207);stop-opacity:1"/><stop offset="0.9" style="stop-color:rgb(243,193,157);stop-opacity:1"/><stop offset="1" style="stop-color:rgb(243,193,157);stop-opacity:1"/></linearGradient>
    </defs>
</svg>
